<mxfile host="65bd71144e">
    <diagram id="FcwWuFwDEZsm-IKbcoGg" name="Seite-1">
        <mxGraphModel dx="1640" dy="1162" grid="1" gridSize="10" guides="1" tooltips="1" connect="1" arrows="1" fold="1" page="0" pageScale="1" pageWidth="827" pageHeight="1169" math="0" shadow="0">
            <root>
                <mxCell id="0"/>
                <mxCell id="1" parent="0"/>
                <mxCell id="InaNoL5P8Q23HSASHjIj-1" value="GPIO_Driver" style="rounded=1;whiteSpace=wrap;html=1;fillColor=#e1d5e7;strokeColor=#9673a6;sketch=1;fontStyle=1" parent="1" vertex="1">
                    <mxGeometry x="-280" y="400" width="120" height="40" as="geometry"/>
                </mxCell>
                <mxCell id="InaNoL5P8Q23HSASHjIj-6" style="edgeStyle=orthogonalEdgeStyle;orthogonalLoop=1;jettySize=auto;html=1;exitX=0.5;exitY=1;exitDx=0;exitDy=0;entryX=0.5;entryY=0;entryDx=0;entryDy=0;startArrow=none;startFill=0;sketch=1;curved=1;" parent="1" source="InaNoL5P8Q23HSASHjIj-2" target="InaNoL5P8Q23HSASHjIj-5" edge="1">
                    <mxGeometry relative="1" as="geometry"/>
                </mxCell>
                <mxCell id="38" style="edgeStyle=elbowEdgeStyle;curved=1;sketch=1;orthogonalLoop=1;jettySize=auto;elbow=vertical;html=1;exitX=0.5;exitY=1;exitDx=0;exitDy=0;entryX=0.5;entryY=0;entryDx=0;entryDy=0;" edge="1" parent="1" source="InaNoL5P8Q23HSASHjIj-12" target="InaNoL5P8Q23HSASHjIj-2">
                    <mxGeometry relative="1" as="geometry"/>
                </mxCell>
                <mxCell id="InaNoL5P8Q23HSASHjIj-2" value="Timer_Driver" style="rounded=1;whiteSpace=wrap;html=1;fillColor=#e1d5e7;strokeColor=#9673a6;sketch=1;" parent="1" vertex="1">
                    <mxGeometry x="200" y="400" width="120" height="40" as="geometry"/>
                </mxCell>
                <mxCell id="InaNoL5P8Q23HSASHjIj-3" value="PORTS" style="rounded=0;whiteSpace=wrap;html=1;fillColor=#d5e8d4;strokeColor=#82b366;sketch=1;" parent="1" vertex="1">
                    <mxGeometry x="-280" y="600" width="120" height="40" as="geometry"/>
                </mxCell>
                <mxCell id="InaNoL5P8Q23HSASHjIj-4" value="" style="endArrow=classic;startArrow=none;html=1;entryX=0.5;entryY=0;entryDx=0;entryDy=0;exitX=0.5;exitY=1;exitDx=0;exitDy=0;sketch=1;startFill=0;" parent="1" source="InaNoL5P8Q23HSASHjIj-1" target="InaNoL5P8Q23HSASHjIj-3" edge="1">
                    <mxGeometry width="50" height="50" relative="1" as="geometry">
                        <mxPoint x="210" y="460" as="sourcePoint"/>
                        <mxPoint x="160" y="510" as="targetPoint"/>
                    </mxGeometry>
                </mxCell>
                <mxCell id="InaNoL5P8Q23HSASHjIj-5" value="Timer/Counter 0" style="rounded=0;whiteSpace=wrap;html=1;fillColor=#d5e8d4;strokeColor=#82b366;sketch=1;" parent="1" vertex="1">
                    <mxGeometry x="40" y="600" width="120" height="40" as="geometry"/>
                </mxCell>
                <mxCell id="InaNoL5P8Q23HSASHjIj-30" value="" style="edgeStyle=orthogonalEdgeStyle;orthogonalLoop=1;jettySize=auto;html=1;exitX=0.5;exitY=1;exitDx=0;exitDy=0;startArrow=none;startFill=0;sketch=1;curved=1;" parent="1" source="InaNoL5P8Q23HSASHjIj-7" edge="1">
                    <mxGeometry x="-0.8182" y="90" relative="1" as="geometry">
                        <mxPoint x="-220" y="400" as="targetPoint"/>
                        <mxPoint as="offset"/>
                    </mxGeometry>
                </mxCell>
                <mxCell id="37" style="edgeStyle=elbowEdgeStyle;sketch=1;orthogonalLoop=1;jettySize=auto;elbow=vertical;html=1;exitX=0.5;exitY=1;exitDx=0;exitDy=0;entryX=0.5;entryY=0;entryDx=0;entryDy=0;curved=1;" edge="1" parent="1" source="InaNoL5P8Q23HSASHjIj-32" target="InaNoL5P8Q23HSASHjIj-7">
                    <mxGeometry relative="1" as="geometry"/>
                </mxCell>
                <mxCell id="InaNoL5P8Q23HSASHjIj-7" value="PWM_Handler" style="rounded=1;whiteSpace=wrap;html=1;fillColor=#dae8fc;strokeColor=#6c8ebf;sketch=1;" parent="1" vertex="1">
                    <mxGeometry x="200" y="180" width="120" height="40" as="geometry"/>
                </mxCell>
                <mxCell id="InaNoL5P8Q23HSASHjIj-9" value="in %" style="endArrow=classic;html=1;entryX=0.5;entryY=0;entryDx=0;entryDy=0;exitX=0.5;exitY=1;exitDx=0;exitDy=0;sketch=1;edgeStyle=orthogonalEdgeStyle;curved=1;" parent="1" source="InaNoL5P8Q23HSASHjIj-7" target="InaNoL5P8Q23HSASHjIj-2" edge="1">
                    <mxGeometry x="0.8947" y="20" width="50" height="50" relative="1" as="geometry">
                        <mxPoint x="270" y="300" as="sourcePoint"/>
                        <mxPoint x="320" y="250" as="targetPoint"/>
                        <mxPoint as="offset"/>
                    </mxGeometry>
                </mxCell>
                <mxCell id="InaNoL5P8Q23HSASHjIj-24" style="edgeStyle=orthogonalEdgeStyle;rounded=1;orthogonalLoop=1;jettySize=auto;html=1;exitX=0.5;exitY=1;exitDx=0;exitDy=0;entryX=0.5;entryY=0;entryDx=0;entryDy=0;startArrow=none;startFill=0;sketch=1;" parent="1" source="InaNoL5P8Q23HSASHjIj-10" target="InaNoL5P8Q23HSASHjIj-22" edge="1">
                    <mxGeometry relative="1" as="geometry">
                        <mxPoint x="-191.25" y="-530" as="sourcePoint"/>
                    </mxGeometry>
                </mxCell>
                <mxCell id="InaNoL5P8Q23HSASHjIj-29" style="edgeStyle=orthogonalEdgeStyle;rounded=1;orthogonalLoop=1;jettySize=auto;html=1;exitX=0.5;exitY=1;exitDx=0;exitDy=0;entryX=0.5;entryY=0;entryDx=0;entryDy=0;startArrow=none;startFill=0;sketch=1;" parent="1" source="InaNoL5P8Q23HSASHjIj-10" target="InaNoL5P8Q23HSASHjIj-26" edge="1">
                    <mxGeometry relative="1" as="geometry">
                        <mxPoint x="-191.25" y="-530" as="sourcePoint"/>
                    </mxGeometry>
                </mxCell>
                <mxCell id="InaNoL5P8Q23HSASHjIj-31" style="edgeStyle=orthogonalEdgeStyle;rounded=1;orthogonalLoop=1;jettySize=auto;html=1;exitX=0.5;exitY=1;exitDx=0;exitDy=0;entryX=0.5;entryY=0;entryDx=0;entryDy=0;startArrow=none;startFill=0;sketch=1;" parent="1" source="InaNoL5P8Q23HSASHjIj-10" target="InaNoL5P8Q23HSASHjIj-20" edge="1">
                    <mxGeometry relative="1" as="geometry">
                        <mxPoint x="-191.25" y="-530" as="sourcePoint"/>
                    </mxGeometry>
                </mxCell>
                <mxCell id="InaNoL5P8Q23HSASHjIj-10" value="Scheduler (1ms)" style="rounded=1;whiteSpace=wrap;html=1;fillColor=#ffe6cc;strokeColor=#d79b00;sketch=1;" parent="1" vertex="1">
                    <mxGeometry x="129.38" y="-440" width="140" height="70" as="geometry"/>
                </mxCell>
                <mxCell id="InaNoL5P8Q23HSASHjIj-12" value="PWM_Analyser" style="rounded=1;whiteSpace=wrap;html=1;fillColor=#dae8fc;strokeColor=#6c8ebf;sketch=1;" parent="1" vertex="1">
                    <mxGeometry x="30" y="180" width="120" height="40" as="geometry"/>
                </mxCell>
                <mxCell id="InaNoL5P8Q23HSASHjIj-14" value="" style="endArrow=classic;html=1;exitX=0.5;exitY=1;exitDx=0;exitDy=0;entryX=0.5;entryY=0;entryDx=0;entryDy=0;sketch=1;edgeStyle=orthogonalEdgeStyle;curved=1;" parent="1" source="InaNoL5P8Q23HSASHjIj-12" target="InaNoL5P8Q23HSASHjIj-1" edge="1">
                    <mxGeometry width="50" height="50" relative="1" as="geometry">
                        <mxPoint x="350" y="190" as="sourcePoint"/>
                        <mxPoint x="300" y="240" as="targetPoint"/>
                    </mxGeometry>
                </mxCell>
                <mxCell id="InaNoL5P8Q23HSASHjIj-16" style="edgeStyle=orthogonalEdgeStyle;orthogonalLoop=1;jettySize=auto;html=1;exitX=0.5;exitY=1;exitDx=0;exitDy=0;entryX=0.5;entryY=0;entryDx=0;entryDy=0;startArrow=classic;startFill=1;sketch=1;curved=1;" parent="1" source="InaNoL5P8Q23HSASHjIj-15" target="InaNoL5P8Q23HSASHjIj-1" edge="1">
                    <mxGeometry relative="1" as="geometry"/>
                </mxCell>
                <mxCell id="InaNoL5P8Q23HSASHjIj-15" value="Input/Output - GPIO Mapper" style="rounded=1;whiteSpace=wrap;html=1;fillColor=#dae8fc;strokeColor=#6c8ebf;sketch=1;" parent="1" vertex="1">
                    <mxGeometry x="-280" y="180" width="120" height="40" as="geometry"/>
                </mxCell>
                <mxCell id="InaNoL5P8Q23HSASHjIj-20" value="Always&lt;br&gt;- PWM_Analyser" style="shape=process;whiteSpace=wrap;html=1;backgroundOutline=1;rounded=1;fillColor=#f5f5f5;strokeColor=#666666;fontColor=#333333;sketch=1;" parent="1" vertex="1">
                    <mxGeometry x="-80" y="-270" width="158.75" height="60" as="geometry"/>
                </mxCell>
                <mxCell id="InaNoL5P8Q23HSASHjIj-22" value="TravelController Update()&lt;br&gt;5ms" style="shape=process;whiteSpace=wrap;html=1;backgroundOutline=1;rounded=1;fillColor=#f5f5f5;strokeColor=#666666;fontColor=#333333;sketch=1;" parent="1" vertex="1">
                    <mxGeometry x="321.25" y="-270" width="158.75" height="60" as="geometry"/>
                </mxCell>
                <mxCell id="InaNoL5P8Q23HSASHjIj-26" value="&lt;font color=&quot;#000000&quot;&gt;&lt;span style=&quot;font-size: 11px&quot;&gt;LightController&lt;br&gt;Update()&lt;/span&gt;&lt;/font&gt;&lt;br&gt;50ms" style="shape=process;whiteSpace=wrap;html=1;backgroundOutline=1;rounded=1;fillColor=#f5f5f5;strokeColor=#666666;fontColor=#333333;sketch=1;" parent="1" vertex="1">
                    <mxGeometry x="120" y="-270" width="158.75" height="60" as="geometry"/>
                </mxCell>
                <mxCell id="InaNoL5P8Q23HSASHjIj-38" style="edgeStyle=elbowEdgeStyle;orthogonalLoop=1;jettySize=auto;html=1;exitDx=0;exitDy=0;entryDx=0;entryDy=0;startArrow=none;startFill=0;sketch=1;exitPerimeter=0;entryX=0.75;entryY=0;elbow=vertical;curved=1;" parent="1" source="InaNoL5P8Q23HSASHjIj-32" target="InaNoL5P8Q23HSASHjIj-15" edge="1">
                    <mxGeometry relative="1" as="geometry"/>
                </mxCell>
                <mxCell id="InaNoL5P8Q23HSASHjIj-39" style="edgeStyle=orthogonalEdgeStyle;orthogonalLoop=1;jettySize=auto;html=1;exitX=0.5;exitY=0;exitDx=0;exitDy=0;startArrow=classic;startFill=1;sketch=1;entryX=0.5;entryY=1;entryDx=0;entryDy=0;endArrow=none;endFill=0;curved=1;" parent="1" source="InaNoL5P8Q23HSASHjIj-12" target="InaNoL5P8Q23HSASHjIj-32" edge="1">
                    <mxGeometry relative="1" as="geometry">
                        <mxPoint x="270" y="20" as="sourcePoint"/>
                    </mxGeometry>
                </mxCell>
                <mxCell id="26" style="edgeStyle=orthogonalEdgeStyle;orthogonalLoop=1;jettySize=auto;html=1;exitX=0.5;exitY=1;exitDx=0;exitDy=0;entryX=0.5;entryY=0;entryDx=0;entryDy=0;sketch=1;curved=1;" edge="1" parent="1" source="InaNoL5P8Q23HSASHjIj-32" target="18">
                    <mxGeometry relative="1" as="geometry"/>
                </mxCell>
                <mxCell id="InaNoL5P8Q23HSASHjIj-32" value="Travel&amp;nbsp;Controller" style="rounded=1;whiteSpace=wrap;html=1;fillColor=#fff2cc;strokeColor=#d6b656;sketch=1;" parent="1" vertex="1">
                    <mxGeometry x="129.38" y="-90" width="120" height="60" as="geometry"/>
                </mxCell>
                <mxCell id="InaNoL5P8Q23HSASHjIj-35" style="edgeStyle=orthogonalEdgeStyle;orthogonalLoop=1;jettySize=auto;html=1;exitX=1;exitY=0.5;exitDx=0;exitDy=0;entryX=0;entryY=0.5;entryDx=0;entryDy=0;startArrow=none;startFill=0;sketch=1;curved=1;" parent="1" source="InaNoL5P8Q23HSASHjIj-34" target="InaNoL5P8Q23HSASHjIj-32" edge="1">
                    <mxGeometry relative="1" as="geometry"/>
                </mxCell>
                <mxCell id="InaNoL5P8Q23HSASHjIj-36" style="edgeStyle=elbowEdgeStyle;orthogonalLoop=1;jettySize=auto;html=1;exitDx=0;exitDy=0;entryDx=0;entryDy=0;startArrow=none;startFill=0;sketch=1;elbow=vertical;curved=1;" parent="1" source="InaNoL5P8Q23HSASHjIj-34" target="InaNoL5P8Q23HSASHjIj-15" edge="1">
                    <mxGeometry relative="1" as="geometry"/>
                </mxCell>
                <mxCell id="InaNoL5P8Q23HSASHjIj-34" value="Light Controller" style="rounded=1;whiteSpace=wrap;html=1;fillColor=#fff2cc;strokeColor=#d6b656;sketch=1;" parent="1" vertex="1">
                    <mxGeometry x="-275" y="-90" width="110" height="60" as="geometry"/>
                </mxCell>
                <mxCell id="4" value="" style="endArrow=none;dashed=1;html=1;" parent="1" edge="1">
                    <mxGeometry width="50" height="50" relative="1" as="geometry">
                        <mxPoint x="960" y="320" as="sourcePoint"/>
                        <mxPoint x="-440" y="320" as="targetPoint"/>
                    </mxGeometry>
                </mxCell>
                <mxCell id="6" value="Driver" style="text;html=1;strokeColor=none;fillColor=none;align=left;verticalAlign=middle;whiteSpace=wrap;rounded=0;fontStyle=1;fontSize=20;" parent="1" vertex="1">
                    <mxGeometry x="-440" y="320" width="80" height="40" as="geometry"/>
                </mxCell>
                <mxCell id="7" value="Abstraction" style="text;html=1;strokeColor=none;fillColor=none;align=left;verticalAlign=middle;whiteSpace=wrap;rounded=0;fontStyle=1;fontSize=20;" parent="1" vertex="1">
                    <mxGeometry x="-440" y="80" width="200" height="40" as="geometry"/>
                </mxCell>
                <mxCell id="8" value="" style="endArrow=none;dashed=1;html=1;" parent="1" edge="1">
                    <mxGeometry width="50" height="50" relative="1" as="geometry">
                        <mxPoint x="960" y="80" as="sourcePoint"/>
                        <mxPoint x="-440" y="79.5" as="targetPoint"/>
                    </mxGeometry>
                </mxCell>
                <mxCell id="9" value="Application Logic" style="text;html=1;strokeColor=none;fillColor=none;align=left;verticalAlign=middle;whiteSpace=wrap;rounded=0;fontStyle=1;fontSize=20;" parent="1" vertex="1">
                    <mxGeometry x="-440" y="-160" width="200" height="40" as="geometry"/>
                </mxCell>
                <mxCell id="10" value="" style="endArrow=none;dashed=1;html=1;" parent="1" edge="1">
                    <mxGeometry width="50" height="50" relative="1" as="geometry">
                        <mxPoint x="960" y="-160" as="sourcePoint"/>
                        <mxPoint x="-440" y="-160" as="targetPoint"/>
                    </mxGeometry>
                </mxCell>
                <mxCell id="11" value="Scheduler" style="text;html=1;strokeColor=none;fillColor=none;align=left;verticalAlign=middle;whiteSpace=wrap;rounded=0;fontStyle=1;fontSize=20;" parent="1" vertex="1">
                    <mxGeometry x="-440" y="-440" width="200" height="40" as="geometry"/>
                </mxCell>
                <mxCell id="24" style="edgeStyle=orthogonalEdgeStyle;orthogonalLoop=1;jettySize=auto;html=1;exitX=0.5;exitY=1;exitDx=0;exitDy=0;entryX=0.5;entryY=0;entryDx=0;entryDy=0;sketch=1;curved=1;" edge="1" parent="1" source="18" target="19">
                    <mxGeometry relative="1" as="geometry"/>
                </mxCell>
                <mxCell id="40" style="edgeStyle=elbowEdgeStyle;curved=1;sketch=1;orthogonalLoop=1;jettySize=auto;elbow=vertical;html=1;exitX=1;exitY=0.5;exitDx=0;exitDy=0;entryX=0;entryY=0.5;entryDx=0;entryDy=0;entryPerimeter=0;startArrow=none;startFill=0;dashed=1;dashPattern=1 2;" edge="1" parent="1" source="18" target="39">
                    <mxGeometry relative="1" as="geometry"/>
                </mxCell>
                <mxCell id="18" value="ADC_Reader&lt;br&gt;(AnalogToProzent)" style="rounded=1;whiteSpace=wrap;html=1;fillColor=#dae8fc;strokeColor=#6c8ebf;sketch=1;" vertex="1" parent="1">
                    <mxGeometry x="560" y="180" width="120" height="40" as="geometry"/>
                </mxCell>
                <mxCell id="25" style="edgeStyle=orthogonalEdgeStyle;rounded=1;orthogonalLoop=1;jettySize=auto;html=1;exitX=0.5;exitY=1;exitDx=0;exitDy=0;entryX=0.5;entryY=0;entryDx=0;entryDy=0;sketch=1;" edge="1" parent="1" source="19" target="21">
                    <mxGeometry relative="1" as="geometry"/>
                </mxCell>
                <mxCell id="19" value="ADC_Driver" style="rounded=1;whiteSpace=wrap;html=1;fillColor=#e1d5e7;strokeColor=#9673a6;sketch=1;fontStyle=1" vertex="1" parent="1">
                    <mxGeometry x="560" y="400" width="120" height="40" as="geometry"/>
                </mxCell>
                <mxCell id="21" value="ADC" style="rounded=0;whiteSpace=wrap;html=1;fillColor=#d5e8d4;strokeColor=#82b366;sketch=1;" vertex="1" parent="1">
                    <mxGeometry x="560" y="600" width="120" height="40" as="geometry"/>
                </mxCell>
                <mxCell id="30" value="" style="endArrow=none;dashed=1;html=1;" edge="1" parent="1">
                    <mxGeometry width="50" height="50" relative="1" as="geometry">
                        <mxPoint x="960" y="560" as="sourcePoint"/>
                        <mxPoint x="-440" y="560" as="targetPoint"/>
                    </mxGeometry>
                </mxCell>
                <mxCell id="31" value="Hardware" style="text;html=1;strokeColor=none;fillColor=none;align=left;verticalAlign=middle;whiteSpace=wrap;rounded=0;fontStyle=1;fontSize=20;" vertex="1" parent="1">
                    <mxGeometry x="-440" y="560" width="200" height="40" as="geometry"/>
                </mxCell>
                <mxCell id="34" style="edgeStyle=orthogonalEdgeStyle;sketch=1;orthogonalLoop=1;jettySize=auto;html=1;exitX=0.5;exitY=1;exitDx=0;exitDy=0;entryX=0.5;entryY=0;entryDx=0;entryDy=0;curved=1;" edge="1" parent="1" source="InaNoL5P8Q23HSASHjIj-2" target="32">
                    <mxGeometry relative="1" as="geometry"/>
                </mxCell>
                <mxCell id="32" value="Timer/Counter 1" style="rounded=0;whiteSpace=wrap;html=1;fillColor=#d5e8d4;strokeColor=#82b366;sketch=1;" vertex="1" parent="1">
                    <mxGeometry x="200" y="600" width="120" height="40" as="geometry"/>
                </mxCell>
                <mxCell id="35" style="edgeStyle=orthogonalEdgeStyle;sketch=1;orthogonalLoop=1;jettySize=auto;html=1;exitX=0.5;exitY=1;exitDx=0;exitDy=0;entryX=0.5;entryY=0;entryDx=0;entryDy=0;curved=1;" edge="1" parent="1" source="InaNoL5P8Q23HSASHjIj-2" target="33">
                    <mxGeometry relative="1" as="geometry"/>
                </mxCell>
                <mxCell id="33" value="Timer/Counter 2" style="rounded=0;whiteSpace=wrap;html=1;fillColor=#d5e8d4;strokeColor=#82b366;sketch=1;" vertex="1" parent="1">
                    <mxGeometry x="360" y="600" width="120" height="40" as="geometry"/>
                </mxCell>
                <mxCell id="42" value="" style="edgeStyle=elbowEdgeStyle;curved=1;sketch=1;orthogonalLoop=1;jettySize=auto;elbow=vertical;html=1;dashed=1;dashPattern=1 2;startArrow=none;startFill=0;exitX=1;exitY=0.5;exitDx=0;exitDy=0;entryX=0;entryY=0.5;entryDx=0;entryDy=0;entryPerimeter=0;" edge="1" parent="1" source="InaNoL5P8Q23HSASHjIj-7" target="41">
                    <mxGeometry relative="1" as="geometry">
                        <Array as="points">
                            <mxPoint x="340" y="130"/>
                        </Array>
                    </mxGeometry>
                </mxCell>
                <mxCell id="39" value="API&lt;br style=&quot;font-size: 10px;&quot;&gt;- GetChPercentage" style="shape=note;whiteSpace=wrap;html=1;backgroundOutline=1;darkOpacity=0.05;align=left;sketch=1;size=12;dashed=1;dashPattern=1 2;fontSize=10;" vertex="1" parent="1">
                    <mxGeometry x="710" y="167.5" width="120" height="65" as="geometry"/>
                </mxCell>
                <mxCell id="41" value="API&lt;br style=&quot;font-size: 10px;&quot;&gt;- SetPWMVal(Ch, %)" style="shape=note;whiteSpace=wrap;html=1;backgroundOutline=1;darkOpacity=0.05;align=left;sketch=1;size=12;dashed=1;dashPattern=1 2;fontSize=10;" vertex="1" parent="1">
                    <mxGeometry x="370" y="100" width="130" height="60" as="geometry"/>
                </mxCell>
                <mxCell id="43" value="" style="edgeStyle=elbowEdgeStyle;curved=1;sketch=1;orthogonalLoop=1;jettySize=auto;elbow=vertical;html=1;dashed=1;dashPattern=1 2;startArrow=none;startFill=0;exitX=0;exitY=0.5;exitDx=0;exitDy=0;entryX=0.5;entryY=0;entryDx=0;entryDy=0;entryPerimeter=0;" edge="1" parent="1" target="44" source="InaNoL5P8Q23HSASHjIj-12">
                    <mxGeometry relative="1" as="geometry">
                        <mxPoint x="80" y="180" as="sourcePoint"/>
                        <Array as="points">
                            <mxPoint x="-30" y="200"/>
                        </Array>
                    </mxGeometry>
                </mxCell>
                <mxCell id="44" value="API&lt;br style=&quot;font-size: 10px&quot;&gt;- Init(GPIO, TimeSource)&lt;br style=&quot;font-size: 10px&quot;&gt;- GetPWMvalue(%)&lt;br&gt;- Update()" style="shape=note;whiteSpace=wrap;html=1;backgroundOutline=1;darkOpacity=0.05;align=left;sketch=1;size=12;dashed=1;dashPattern=1 2;fontSize=10;" vertex="1" parent="1">
                    <mxGeometry x="-120" y="220" width="130" height="60" as="geometry"/>
                </mxCell>
                <mxCell id="46" style="edgeStyle=elbowEdgeStyle;curved=1;sketch=1;orthogonalLoop=1;jettySize=auto;elbow=vertical;html=1;exitX=0;exitY=0;exitDx=190;exitDy=56;exitPerimeter=0;entryX=0;entryY=0.5;entryDx=0;entryDy=0;dashed=1;dashPattern=1 2;fontSize=10;startArrow=none;startFill=0;" edge="1" parent="1" source="45" target="InaNoL5P8Q23HSASHjIj-1">
                    <mxGeometry relative="1" as="geometry">
                        <Array as="points">
                            <mxPoint x="-290" y="420"/>
                        </Array>
                    </mxGeometry>
                </mxCell>
                <mxCell id="45" value="Know the Hardware.&lt;br&gt;Maps Pin Number to PORTx/PINx/DDRx&lt;br&gt;&lt;br&gt;API&lt;br&gt;SetGPIO(number )&lt;br&gt;ConfigureGPIO(number, config_t)" style="shape=note;whiteSpace=wrap;html=1;backgroundOutline=1;darkOpacity=0.05;align=left;sketch=1;size=12;dashed=1;dashPattern=1 2;fontSize=10;" vertex="1" parent="1">
                    <mxGeometry x="-530" y="420" width="190" height="100" as="geometry"/>
                </mxCell>
                <mxCell id="48" style="edgeStyle=elbowEdgeStyle;curved=1;sketch=1;orthogonalLoop=1;jettySize=auto;elbow=vertical;html=1;exitX=0;exitY=0;exitDx=190;exitDy=56;exitPerimeter=0;entryX=0;entryY=0.5;entryDx=0;entryDy=0;dashed=1;dashPattern=1 2;fontSize=10;startArrow=none;startFill=0;" edge="1" parent="1" source="47" target="InaNoL5P8Q23HSASHjIj-15">
                    <mxGeometry relative="1" as="geometry">
                        <Array as="points">
                            <mxPoint x="-310" y="200"/>
                        </Array>
                    </mxGeometry>
                </mxCell>
                <mxCell id="47" value="Knows Pin Function with Pin ID&lt;br&gt;Knows which is a input/output&lt;br&gt;&lt;br&gt;API&lt;br&gt;- GetPortState(id)&lt;br&gt;- SetPortState(id, state)" style="shape=note;whiteSpace=wrap;html=1;backgroundOutline=1;darkOpacity=0.05;align=left;sketch=1;size=12;dashed=1;dashPattern=1 2;fontSize=10;" vertex="1" parent="1">
                    <mxGeometry x="-530" y="190" width="190" height="100" as="geometry"/>
                </mxCell>
                <mxCell id="49" value="Knows all functions of the timer Module&lt;br&gt;&lt;br&gt;API&lt;br&gt;- ???" style="shape=note;whiteSpace=wrap;html=1;backgroundOutline=1;darkOpacity=0.05;align=left;sketch=1;size=12;dashed=1;dashPattern=1 2;fontSize=10;" vertex="1" parent="1">
                    <mxGeometry x="-50" y="400" width="190" height="100" as="geometry"/>
                </mxCell>
                <mxCell id="50" style="edgeStyle=elbowEdgeStyle;curved=1;sketch=1;orthogonalLoop=1;jettySize=auto;elbow=vertical;html=1;exitX=0;exitY=0;exitDx=190;exitDy=56;exitPerimeter=0;dashed=1;dashPattern=1 2;fontSize=10;startArrow=none;startFill=0;entryX=0;entryY=0.5;entryDx=0;entryDy=0;" edge="1" parent="1" source="49" target="InaNoL5P8Q23HSASHjIj-2">
                    <mxGeometry relative="1" as="geometry">
                        <mxPoint x="140" y="475.9999999999998" as="sourcePoint"/>
                        <mxPoint x="180" y="430" as="targetPoint"/>
                        <Array as="points">
                            <mxPoint x="190" y="420"/>
                        </Array>
                    </mxGeometry>
                </mxCell>
                <mxCell id="51" value="Knows ADC functions&lt;br&gt;&lt;br&gt;API&lt;br&gt;- GetCh" style="shape=note;whiteSpace=wrap;html=1;backgroundOutline=1;darkOpacity=0.05;align=left;sketch=1;size=12;dashed=1;dashPattern=1 2;fontSize=10;" vertex="1" parent="1">
                    <mxGeometry x="360" y="400" width="160" height="100" as="geometry"/>
                </mxCell>
                <mxCell id="52" style="edgeStyle=elbowEdgeStyle;curved=1;sketch=1;orthogonalLoop=1;jettySize=auto;elbow=vertical;html=1;exitX=0;exitY=0;exitDx=160;exitDy=56;exitPerimeter=0;dashed=1;dashPattern=1 2;fontSize=10;startArrow=none;startFill=0;entryX=0;entryY=0.5;entryDx=0;entryDy=0;" edge="1" parent="1" source="51" target="19">
                    <mxGeometry relative="1" as="geometry">
                        <mxPoint x="510" y="499.9999999999998" as="sourcePoint"/>
                        <mxPoint x="570" y="463.9999999999998" as="targetPoint"/>
                        <Array as="points">
                            <mxPoint x="540" y="420"/>
                        </Array>
                    </mxGeometry>
                </mxCell>
                <mxCell id="54" style="edgeStyle=elbowEdgeStyle;curved=1;sketch=1;orthogonalLoop=1;jettySize=auto;elbow=vertical;html=1;exitX=0.5;exitY=1;exitDx=0;exitDy=0;entryX=0.5;entryY=0;entryDx=0;entryDy=0;fontSize=10;startArrow=none;startFill=0;" edge="1" parent="1" source="53" target="InaNoL5P8Q23HSASHjIj-2">
                    <mxGeometry relative="1" as="geometry"/>
                </mxCell>
                <mxCell id="53" value="SysClock" style="rounded=1;whiteSpace=wrap;html=1;fillColor=#dae8fc;strokeColor=#6c8ebf;sketch=1;" vertex="1" parent="1">
                    <mxGeometry x="340.63" y="180" width="120" height="40" as="geometry"/>
                </mxCell>
                <mxCell id="55" value="API&lt;br style=&quot;font-size: 10px&quot;&gt;- GetTick()&lt;br&gt;- Update()" style="shape=note;whiteSpace=wrap;html=1;backgroundOutline=1;darkOpacity=0.05;align=left;sketch=1;size=12;dashed=1;dashPattern=1 2;fontSize=10;" vertex="1" parent="1">
                    <mxGeometry x="450" y="240" width="70" height="60" as="geometry"/>
                </mxCell>
                <mxCell id="56" value="" style="edgeStyle=elbowEdgeStyle;curved=1;sketch=1;orthogonalLoop=1;jettySize=auto;elbow=vertical;html=1;dashed=1;dashPattern=1 2;startArrow=none;startFill=0;exitX=0;exitY=0.5;exitDx=0;exitDy=0;entryX=0.75;entryY=1;entryDx=0;entryDy=0;exitPerimeter=0;" edge="1" parent="1" source="55" target="53">
                    <mxGeometry relative="1" as="geometry">
                        <mxPoint x="430" y="290" as="sourcePoint"/>
                        <mxPoint x="480" y="220" as="targetPoint"/>
                        <Array as="points">
                            <mxPoint x="440" y="270"/>
                            <mxPoint x="450" y="220"/>
                        </Array>
                    </mxGeometry>
                </mxCell>
            </root>
        </mxGraphModel>
    </diagram>
</mxfile>